<svg viewBox="0 0 491 72" xmlns="http://www.w3.org/2000/svg">
    <path d="M23.832 14.744c4.32 0 7.752.384 10.296 1.152 2.592.72 4.464 2.016 5.616 3.888 1.152 1.872 1.728 4.512 1.728 7.92 0 3.552-.696 6.264-2.088 8.136-1.344 1.824-3.576 2.88-6.696 3.168v.36c3.84.336 6.528 1.632 8.064 3.888 1.536 2.256 2.304 5.376 2.304 9.36 0 3.408-.6 6.048-1.8 7.92-1.152 1.872-2.976 3.192-5.472 3.96-2.496.72-5.712 1.08-9.648 1.08-3.216 0-6.024-.024-8.424-.072-2.352 0-4.536-.048-6.552-.144A317.382 317.382 0 015.04 65V15.32a72.973 72.973 0 015.472-.36c1.824-.096 3.792-.144 5.904-.144 2.112-.048 4.584-.072 7.416-.072zm-.576 7.992H15.768v13.032h8.064c2.688 0 4.536-.432 5.544-1.296 1.056-.864 1.584-2.64 1.584-5.328 0-2.64-.552-4.368-1.656-5.184-1.104-.816-3.12-1.224-6.048-1.224zm.72 20.016h-8.208v14.832h8.424c2.016 0 3.6-.192 4.752-.576 1.152-.384 1.944-1.08 2.376-2.088.48-1.008.72-2.496.72-4.464 0-2.016-.24-3.576-.72-4.68-.48-1.104-1.32-1.872-2.52-2.304-1.152-.48-2.76-.72-4.824-.72zm66.79-27.432V45.2c0 5.04-.647 9.096-1.943 12.168-1.248 3.024-3.288 5.208-6.12 6.552-2.832 1.344-6.624 2.016-11.376 2.016-5.04 0-9.072-.672-12.096-2.016-3.024-1.344-5.208-3.528-6.552-6.552-1.296-3.072-1.944-7.128-1.944-12.168V15.32h10.944V45.2c0 3.12.264 5.568.792 7.344.576 1.728 1.512 2.952 2.808 3.672 1.344.72 3.168 1.08 5.472 1.08 2.256 0 4.032-.36 5.328-1.08 1.344-.72 2.304-1.944 2.88-3.672.576-1.776.864-4.224.864-7.344V15.32h10.944zm29.128-.72c5.232 0 9.384.768 12.456 2.304 3.12 1.536 5.376 4.152 6.768 7.848 1.392 3.696 2.088 8.832 2.088 15.408 0 6.576-.696 11.712-2.088 15.408-1.392 3.696-3.648 6.312-6.768 7.848-3.072 1.488-7.224 2.232-12.456 2.232-3.792 0-7.272-.072-10.44-.216-3.168-.096-6.168-.24-9-.432V15.32c2.88-.192 5.88-.36 9-.504 3.12-.144 6.6-.216 10.44-.216zm0 8.424h-4.536c-1.392 0-2.712.024-3.96.072v34.056c2.592.048 5.424.072 8.496.072 2.496 0 4.44-.48 5.832-1.44 1.392-1.008 2.376-2.76 2.952-5.256.624-2.496.936-5.952.936-10.368s-.312-7.872-.936-10.368c-.576-2.496-1.56-4.248-2.952-5.256s-3.336-1.512-5.832-1.512zm49.437-8.712c3.936 0 7.248.432 9.936 1.296 2.736.816 4.944 2.208 6.624 4.176 1.68 1.968 2.904 4.608 3.671 7.92.769 3.312 1.153 7.464 1.153 12.456 0 4.992-.384 9.144-1.153 12.456-.767 3.312-1.991 5.952-3.671 7.92-1.68 1.968-3.888 3.36-6.624 4.176-2.688.816-6 1.224-9.936 1.224s-7.272-.408-10.008-1.224c-2.736-.816-4.944-2.208-6.624-4.176-1.68-1.968-2.904-4.608-3.672-7.92-.72-3.312-1.08-7.464-1.08-12.456 0-4.992.36-9.144 1.08-12.456.768-3.312 1.992-5.952 3.672-7.92 1.68-1.968 3.888-3.36 6.624-4.176 2.736-.864 6.072-1.296 10.008-1.296zm0 8.64c-2.544 0-4.536.504-5.976 1.512-1.392 1.008-2.4 2.76-3.024 5.256-.576 2.496-.864 5.976-.864 10.44 0 4.464.288 7.944.864 10.44.624 2.496 1.632 4.248 3.024 5.256 1.44.96 3.432 1.44 5.976 1.44 2.496 0 4.464-.48 5.904-1.44 1.44-1.008 2.448-2.76 3.024-5.256.576-2.496.864-5.976.864-10.44 0-4.464-.288-7.944-.864-10.44-.576-2.496-1.584-4.248-3.024-5.256s-3.408-1.512-5.904-1.512zm48.493-8.208c4.32 0 7.752.384 10.296 1.152 2.592.72 4.464 2.016 5.616 3.888 1.152 1.872 1.728 4.512 1.728 7.92 0 3.552-.696 6.264-2.088 8.136-1.344 1.824-3.576 2.88-6.696 3.168v.36c3.84.336 6.528 1.632 8.064 3.888 1.536 2.256 2.304 5.376 2.304 9.36 0 3.408-.6 6.048-1.8 7.92-1.152 1.872-2.976 3.192-5.472 3.96-2.496.72-5.712 1.08-9.648 1.08-3.216 0-6.024-.024-8.424-.072-2.352 0-4.536-.048-6.552-.144a317.382 317.382 0 01-6.12-.36V15.32a72.973 72.973 0 015.472-.36c1.824-.096 3.792-.144 5.904-.144 2.112-.048 4.584-.072 7.416-.072zm-.576 7.992H209.76v13.032h8.064c2.688 0 4.536-.432 5.544-1.296 1.056-.864 1.584-2.64 1.584-5.328 0-2.64-.552-4.368-1.656-5.184-1.104-.816-3.12-1.224-6.048-1.224zm.72 20.016h-8.208v14.832h8.424c2.016 0 3.6-.192 4.752-.576 1.152-.384 1.944-1.08 2.376-2.088.48-1.008.72-2.496.72-4.464 0-2.016-.24-3.576-.72-4.68-.48-1.104-1.32-1.872-2.52-2.304-1.152-.48-2.76-.72-4.824-.72zm50.807-27.432c.912 0 1.704.264 2.376.792a3.77 3.77 0 011.44 2.088l14.4 46.8h-11.232l-3.672-13.176h-17.136L251.351 65h-11.232l14.4-46.8c.24-.864.696-1.56 1.368-2.088a4.035 4.035 0 012.448-.792h10.44zm-7.272 13.104l-4.248 15.192h12.528l-4.176-15.192a34.31 34.31 0 01-.648-2.376c-.144-.864-.288-1.68-.432-2.448h-1.944a75.225 75.225 0 01-.504 2.448c-.192.816-.384 1.608-.576 2.376zm41.353-13.104v37.152c0 2.448 1.296 3.672 3.888 3.672h17.352l.504 8.28c-3.456.384-7.056.6-10.8.648a842.86 842.86 0 01-10.944.072c-3.648 0-6.384-.96-8.208-2.88-1.824-1.92-2.736-4.392-2.736-7.416V15.32h10.944zm38.675 0v14.04c0 2.064-.192 4.056-.576 5.976h4.464l12.672-20.016h11.88l-12.96 20.016a11.946 11.946 0 01-1.728 2.232 17.237 17.237 0 01-1.872 1.512v.216c.672.432 1.392 1.032 2.16 1.8.768.768 1.392 1.56 1.872 2.376L370.835 65h-12.24l-13.104-22.032h-4.536c.192.864.336 1.704.432 2.52.096.816.144 1.608.144 2.376V65h-10.944V15.32h10.944zm58.377 0c.912 0 1.704.264 2.376.792a3.77 3.77 0 011.44 2.088l14.4 46.8h-11.232l-3.672-13.176h-17.136L382.484 65h-11.232l14.4-46.8c.24-.864.696-1.56 1.368-2.088a4.035 4.035 0 012.448-.792h10.44zm-7.272 13.104l-4.248 15.192h12.528l-4.176-15.192a34.31 34.31 0 01-.648-2.376c-.144-.864-.288-1.68-.432-2.448h-1.944a75.225 75.225 0 01-.504 2.448c-.192.816-.384 1.608-.576 2.376zm72.528-13.104v45.72c0 2.64-1.32 3.96-3.96 3.96h-6.048c-1.2 0-2.112-.264-2.736-.792-.576-.576-1.152-1.416-1.728-2.52L436.94 35.552a42.572 42.572 0 01-1.728-3.6 54.447 54.447 0 01-1.368-3.888h-.792a62.72 62.72 0 01.504 7.776V65h-10.368V19.28c0-2.64 1.32-3.96 3.96-3.96h5.976c1.152 0 2.016.288 2.592.864.624.528 1.224 1.32 1.8 2.376l13.32 25.344a70.393 70.393 0 011.8 3.744 105.87 105.87 0 011.8 4.104h.864a129.69 129.69 0 01-.36-4.104 121.167 121.167 0 01-.072-4.176V15.32h10.296zm20.859 0V65h-10.944V15.32h10.944z" />
</svg>